# xmcd
#
# Track frame offsets: 
#        150
#        20354
#        35499
#        51893
#        67400
#        81775
#        93646
#        114231
#        130008
#        152623
#        166654
#        182789
#        204960
#        233753
#
# Disc length: 3410 seconds
#
# Revision: 0
# Processed by: cddbd v1.5.2PL0 Copyright (c) Steve Scherf et al.
# Submitted via: ExactAudioCopy v0.99pb5
#
DISCID=af0d500e
DTITLE=Charlie Tuna - Charlie Tuna and Friends
DYEAR=2002
DGENRE=Blues
TTITLE0=marla's memory lane
TTITLE1=good oiling tuna
TTITLE2=soft eyes
TTITLE3=gimmy my broom
TTITLE4=next time you see me
TTITLE5=what I say
TTITLE6=crossroads
TTITLE7=sweet home chicago
TTITLE8=you're a winner
TTITLE9=every dog has his day
TTITLE10=man in the boat
TTITLE11=i'm so lonely
TTITLE12=i like it
TTITLE13=who dun it
EXTD=
EXTT0=
EXTT1=
EXTT2=
EXTT3=
EXTT4=
EXTT5=
EXTT6=
EXTT7=
EXTT8=
EXTT9=
EXTT10=
EXTT11=
EXTT12=
EXTT13=
PLAYORDER=
